<svg xmlns="http://www.w3.org/2000/svg" viewBox="0 0 200 200" fill="none">
  <!-- 마왕 devil emblem — stylized brand motif (placeholder for official mascot) -->
  <g stroke="currentColor" stroke-width="6" stroke-linejoin="round" stroke-linecap="round" fill="none">
    <circle cx="100" cy="100" r="92"/>
    <!-- horns -->
    <path d="M58 78 C40 60 38 38 48 26 C52 46 64 56 74 64 Z" fill="currentColor"/>
    <path d="M142 78 C160 60 162 38 152 26 C148 46 136 56 126 64 Z" fill="currentColor"/>
    <!-- head -->
    <path d="M62 70 C70 58 130 58 138 70 C150 86 150 120 132 150 C120 168 80 168 68 150 C50 120 50 86 62 70 Z"/>
    <!-- brows / eyes -->
    <path d="M70 96 C82 86 92 90 96 98 C88 100 78 102 70 102 Z" fill="currentColor"/>
    <path d="M130 96 C118 86 108 90 104 98 C112 100 122 102 130 102 Z" fill="currentColor"/>
    <!-- grin -->
    <path d="M72 124 C86 142 114 142 128 124 C120 136 110 140 100 140 C90 140 80 136 72 124 Z" fill="currentColor"/>
    <!-- goatee -->
    <path d="M92 150 C96 162 104 162 108 150 C104 154 96 154 92 150 Z" fill="currentColor"/>
  </g>
</svg>
